<svg id="visual" viewBox="0 0 960 540" width="960" height="540" xmlns="http://www.w3.org/2000/svg" xmlns:xlink="http://www.w3.org/1999/xlink" version="1.1"><path d="M0 44L14.5 46.7C29 49.3 58 54.7 87.2 61.8C116.3 69 145.7 78 174.8 79.8C204 81.7 233 76.3 262 72.8C291 69.3 320 67.7 349 61.3C378 55 407 44 436.2 38.5C465.3 33 494.7 33 523.8 34C553 35 582 37 611 42.5C640 48 669 57 698 57.8C727 58.7 756 51.3 785.2 54.8C814.3 58.3 843.7 72.7 872.8 72.7C902 72.7 931 58.3 945.5 51.2L960 44L960 0L945.5 0C931 0 902 0 872.8 0C843.7 0 814.3 0 785.2 0C756 0 727 0 698 0C669 0 640 0 611 0C582 0 553 0 523.8 0C494.7 0 465.3 0 436.2 0C407 0 378 0 349 0C320 0 291 0 262 0C233 0 204 0 174.8 0C145.7 0 116.3 0 87.2 0C58 0 29 0 14.5 0L0 0Z" fill="#4dd0b1"></path><path d="M0 114L14.5 112.3C29 110.7 58 107.3 87.2 117.3C116.3 127.3 145.7 150.7 174.8 154.2C204 157.7 233 141.3 262 130.5C291 119.7 320 114.3 349 106.3C378 98.3 407 87.7 436.2 89.5C465.3 91.3 494.7 105.7 523.8 109.2C553 112.7 582 105.3 611 104.3C640 103.3 669 108.7 698 114.2C727 119.7 756 125.3 785.2 128.2C814.3 131 843.7 131 872.8 125.5C902 120 931 109 945.5 103.5L960 98L960 42L945.5 49.2C931 56.3 902 70.7 872.8 70.7C843.7 70.7 814.3 56.3 785.2 52.8C756 49.3 727 56.7 698 55.8C669 55 640 46 611 40.5C582 35 553 33 523.8 32C494.7 31 465.3 31 436.2 36.5C407 42 378 53 349 59.3C320 65.7 291 67.3 262 70.8C233 74.3 204 79.7 174.8 77.8C145.7 76 116.3 67 87.2 59.8C58 52.7 29 47.3 14.5 44.7L0 42Z" fill="#33c4a2"></path><path d="M0 330L14.5 324.7C29 319.3 58 308.7 87.2 315C116.3 321.3 145.7 344.7 174.8 345.5C204 346.3 233 324.7 262 325.7C291 326.7 320 350.3 349 339.7C378 329 407 284 436.2 266.8C465.3 249.7 494.7 260.3 523.8 253C553 245.7 582 220.3 611 222.2C640 224 669 253 698 261.2C727 269.3 756 256.7 785.2 261.2C814.3 265.7 843.7 287.3 872.8 304.5C902 321.7 931 334.3 945.5 340.7L960 347L960 96L945.5 101.5C931 107 902 118 872.8 123.5C843.7 129 814.3 129 785.2 126.2C756 123.3 727 117.7 698 112.2C669 106.7 640 101.3 611 102.3C582 103.3 553 110.7 523.8 107.2C494.7 103.7 465.3 89.3 436.2 87.5C407 85.7 378 96.3 349 104.3C320 112.3 291 117.7 262 128.5C233 139.3 204 155.7 174.8 152.2C145.7 148.7 116.3 125.3 87.2 115.3C58 105.3 29 108.7 14.5 110.3L0 112Z" fill="#00b894"></path><path d="M0 417L14.5 417.8C29 418.7 58 420.3 87.2 427.5C116.3 434.7 145.7 447.3 174.8 441C204 434.7 233 409.3 262 407.5C291 405.7 320 427.3 349 416.7C378 406 407 363 436.2 351.3C465.3 339.7 494.7 359.3 523.8 353C553 346.7 582 314.3 611 315.2C640 316 669 350 698 356.3C727 362.7 756 341.3 785.2 340.5C814.3 339.7 843.7 359.3 872.8 373.7C902 388 931 397 945.5 401.5L960 406L960 345L945.5 338.7C931 332.3 902 319.7 872.8 302.5C843.7 285.3 814.3 263.7 785.2 259.2C756 254.7 727 267.3 698 259.2C669 251 640 222 611 220.2C582 218.3 553 243.7 523.8 251C494.7 258.3 465.3 247.7 436.2 264.8C407 282 378 327 349 337.7C320 348.3 291 324.7 262 323.7C233 322.7 204 344.3 174.8 343.5C145.7 342.7 116.3 319.3 87.2 313C58 306.7 29 317.3 14.5 322.7L0 328Z" fill="#009f80"></path><path d="M0 541L14.5 541C29 541 58 541 87.2 541C116.3 541 145.7 541 174.8 541C204 541 233 541 262 541C291 541 320 541 349 541C378 541 407 541 436.2 541C465.3 541 494.7 541 523.8 541C553 541 582 541 611 541C640 541 669 541 698 541C727 541 756 541 785.2 541C814.3 541 843.7 541 872.8 541C902 541 931 541 945.5 541L960 541L960 404L945.5 399.5C931 395 902 386 872.8 371.7C843.7 357.3 814.3 337.7 785.2 338.5C756 339.3 727 360.7 698 354.3C669 348 640 314 611 313.2C582 312.3 553 344.7 523.8 351C494.7 357.3 465.3 337.7 436.2 349.3C407 361 378 404 349 414.7C320 425.3 291 403.7 262 405.5C233 407.3 204 432.7 174.8 439C145.7 445.3 116.3 432.7 87.2 425.5C58 418.3 29 416.7 14.5 415.8L0 415Z" fill="#00876d"></path></svg>