<svg id="visual" viewBox="0 0 900 600" width="900" height="600" xmlns="http://www.w3.org/2000/svg" xmlns:xlink="http://www.w3.org/1999/xlink" version="1.1"><path d="M0 49L13.7 52C27.3 55 54.7 61 82 69C109.3 77 136.7 87 163.8 89C191 91 218 85 245.2 81C272.3 77 299.7 75 327 68C354.3 61 381.7 49 409 43C436.3 37 463.7 37 491 38C518.3 39 545.7 41 573 47C600.3 53 627.7 63 654.8 64C682 65 709 57 736.2 61C763.3 65 790.7 81 818 81C845.3 81 872.7 65 886.3 57L900 49L900 0L886.3 0C872.7 0 845.3 0 818 0C790.7 0 763.3 0 736.2 0C709 0 682 0 654.8 0C627.7 0 600.3 0 573 0C545.7 0 518.3 0 491 0C463.7 0 436.3 0 409 0C381.7 0 354.3 0 327 0C299.7 0 272.3 0 245.2 0C218 0 191 0 163.8 0C136.7 0 109.3 0 82 0C54.7 0 27.3 0 13.7 0L0 0Z" fill="#6198ff"></path><path d="M0 127L13.7 125C27.3 123 54.7 119 82 130C109.3 141 136.7 167 163.8 171C191 175 218 157 245.2 145C272.3 133 299.7 127 327 118C354.3 109 381.7 97 409 99C436.3 101 463.7 117 491 121C518.3 125 545.7 117 573 116C600.3 115 627.7 121 654.8 127C682 133 709 139 736.2 142C763.3 145 790.7 145 818 139C845.3 133 872.7 121 886.3 115L900 109L900 47L886.3 55C872.7 63 845.3 79 818 79C790.7 79 763.3 63 736.2 59C709 55 682 63 654.8 62C627.7 61 600.3 51 573 45C545.7 39 518.3 37 491 36C463.7 35 436.3 35 409 41C381.7 47 354.3 59 327 66C299.7 73 272.3 75 245.2 79C218 83 191 89 163.8 87C136.7 85 109.3 75 82 67C54.7 59 27.3 53 13.7 50L0 47Z" fill="#3c80ff"></path><path d="M0 367L13.7 361C27.3 355 54.7 343 82 350C109.3 357 136.7 383 163.8 384C191 385 218 361 245.2 362C272.3 363 299.7 389 327 377C354.3 365 381.7 315 409 296C436.3 277 463.7 289 491 281C518.3 273 545.7 245 573 247C600.3 249 627.7 281 654.8 290C682 299 709 285 736.2 290C763.3 295 790.7 319 818 338C845.3 357 872.7 371 886.3 378L900 385L900 107L886.3 113C872.7 119 845.3 131 818 137C790.7 143 763.3 143 736.2 140C709 137 682 131 654.8 125C627.7 119 600.3 113 573 114C545.7 115 518.3 123 491 119C463.7 115 436.3 99 409 97C381.7 95 354.3 107 327 116C299.7 125 272.3 131 245.2 143C218 155 191 173 163.8 169C136.7 165 109.3 139 82 128C54.7 117 27.3 121 13.7 123L0 125Z" fill="#0066ff"></path><path d="M0 463L13.7 464C27.3 465 54.7 467 82 475C109.3 483 136.7 497 163.8 490C191 483 218 455 245.2 453C272.3 451 299.7 475 327 463C354.3 451 381.7 403 409 390C436.3 377 463.7 399 491 392C518.3 385 545.7 349 573 350C600.3 351 627.7 389 654.8 396C682 403 709 379 736.2 378C763.3 377 790.7 399 818 415C845.3 431 872.7 441 886.3 446L900 451L900 383L886.3 376C872.7 369 845.3 355 818 336C790.7 317 763.3 293 736.2 288C709 283 682 297 654.8 288C627.7 279 600.3 247 573 245C545.7 243 518.3 271 491 279C463.7 287 436.3 275 409 294C381.7 313 354.3 363 327 375C299.7 387 272.3 361 245.2 360C218 359 191 383 163.8 382C136.7 381 109.3 355 82 348C54.7 341 27.3 353 13.7 359L0 365Z" fill="#0059dd"></path><path d="M0 601L13.7 601C27.3 601 54.7 601 82 601C109.3 601 136.7 601 163.8 601C191 601 218 601 245.2 601C272.3 601 299.7 601 327 601C354.3 601 381.7 601 409 601C436.3 601 463.7 601 491 601C518.3 601 545.7 601 573 601C600.3 601 627.7 601 654.8 601C682 601 709 601 736.2 601C763.3 601 790.7 601 818 601C845.3 601 872.7 601 886.3 601L900 601L900 449L886.3 444C872.7 439 845.3 429 818 413C790.7 397 763.3 375 736.2 376C709 377 682 401 654.8 394C627.7 387 600.3 349 573 348C545.7 347 518.3 383 491 390C463.7 397 436.3 375 409 388C381.7 401 354.3 449 327 461C299.7 473 272.3 449 245.2 451C218 453 191 481 163.8 488C136.7 495 109.3 481 82 473C54.7 465 27.3 463 13.7 462L0 461Z" fill="#004cbb"></path></svg>