<svg id="visual" viewBox="0 0 675 900" width="675" height="900" xmlns="http://www.w3.org/2000/svg" xmlns:xlink="http://www.w3.org/1999/xlink" version="1.1"><rect x="0" y="0" width="675" height="900" fill="#00473A"></rect><path d="M0 687L16 688.3C32 689.7 64 692.3 96.2 699.3C128.3 706.3 160.7 717.7 192.8 721.5C225 725.3 257 721.7 289.2 710.7C321.3 699.7 353.7 681.3 385.8 671.7C418 662 450 661 482.2 674.8C514.3 688.7 546.7 717.3 578.8 729C611 740.7 643 735.3 659 732.7L675 730L675 901L659 901C643 901 611 901 578.8 901C546.7 901 514.3 901 482.2 901C450 901 418 901 385.8 901C353.7 901 321.3 901 289.2 901C257 901 225 901 192.8 901C160.7 901 128.3 901 96.2 901C64 901 32 901 16 901L0 901Z" fill="#00B894" stroke-linecap="round" stroke-linejoin="miter"></path></svg>