<svg id="visual" viewBox="0 0 675 900" width="675" height="900" xmlns="http://www.w3.org/2000/svg" xmlns:xlink="http://www.w3.org/1999/xlink" version="1.1"><path d="M0 91L10.2 89.5C20.3 88 40.7 85 61.2 85C81.7 85 102.3 88 122.8 97C143.3 106 163.7 121 184 127C204.3 133 224.7 130 245.2 124C265.7 118 286.3 109 306.8 104.5C327.3 100 347.7 100 368.2 103C388.7 106 409.3 112 429.8 116.5C450.3 121 470.7 124 491 125.5C511.3 127 531.7 127 552.2 119.5C572.7 112 593.3 97 613.8 94C634.3 91 654.7 100 664.8 104.5L675 109L675 0L664.8 0C654.7 0 634.3 0 613.8 0C593.3 0 572.7 0 552.2 0C531.7 0 511.3 0 491 0C470.7 0 450.3 0 429.8 0C409.3 0 388.7 0 368.2 0C347.7 0 327.3 0 306.8 0C286.3 0 265.7 0 245.2 0C224.7 0 204.3 0 184 0C163.7 0 143.3 0 122.8 0C102.3 0 81.7 0 61.2 0C40.7 0 20.3 0 10.2 0L0 0Z" fill="#4dd0b1"></path><path d="M0 226L10.2 224.5C20.3 223 40.7 220 61.2 221.5C81.7 223 102.3 229 122.8 239.5C143.3 250 163.7 265 184 268C204.3 271 224.7 262 245.2 251.5C265.7 241 286.3 229 306.8 235C327.3 241 347.7 265 368.2 272.5C388.7 280 409.3 271 429.8 260.5C450.3 250 470.7 238 491 226C511.3 214 531.7 202 552.2 200.5C572.7 199 593.3 208 613.8 205C634.3 202 654.7 187 664.8 179.5L675 172L675 107L664.8 102.5C654.7 98 634.3 89 613.8 92C593.3 95 572.7 110 552.2 117.5C531.7 125 511.3 125 491 123.5C470.7 122 450.3 119 429.8 114.5C409.3 110 388.7 104 368.2 101C347.7 98 327.3 98 306.8 102.5C286.3 107 265.7 116 245.2 122C224.7 128 204.3 131 184 125C163.7 119 143.3 104 122.8 95C102.3 86 81.7 83 61.2 83C40.7 83 20.3 86 10.2 87.5L0 89Z" fill="#33c4a2"></path><path d="M0 487L10.2 473.5C20.3 460 40.7 433 61.2 442C81.7 451 102.3 496 122.8 517C143.3 538 163.7 535 184 536.5C204.3 538 224.7 544 245.2 548.5C265.7 553 286.3 556 306.8 548.5C327.3 541 347.7 523 368.2 500.5C388.7 478 409.3 451 429.8 440.5C450.3 430 470.7 436 491 422.5C511.3 409 531.7 376 552.2 389.5C572.7 403 593.3 463 613.8 473.5C634.3 484 654.7 445 664.8 425.5L675 406L675 170L664.8 177.5C654.7 185 634.3 200 613.8 203C593.3 206 572.7 197 552.2 198.5C531.7 200 511.3 212 491 224C470.7 236 450.3 248 429.8 258.5C409.3 269 388.7 278 368.2 270.5C347.7 263 327.3 239 306.8 233C286.3 227 265.7 239 245.2 249.5C224.7 260 204.3 269 184 266C163.7 263 143.3 248 122.8 237.5C102.3 227 81.7 221 61.2 219.5C40.7 218 20.3 221 10.2 222.5L0 224Z" fill="#00b894"></path><path d="M0 721L10.2 737.5C20.3 754 40.7 787 61.2 800.5C81.7 814 102.3 808 122.8 787C143.3 766 163.7 730 184 721C204.3 712 224.7 730 245.2 739C265.7 748 286.3 748 306.8 743.5C327.3 739 347.7 730 368.2 719.5C388.7 709 409.3 697 429.8 701.5C450.3 706 470.7 727 491 721C511.3 715 531.7 682 552.2 673C572.7 664 593.3 679 613.8 685C634.3 691 654.7 688 664.8 686.5L675 685L675 404L664.8 423.5C654.7 443 634.3 482 613.8 471.5C593.3 461 572.7 401 552.2 387.5C531.7 374 511.3 407 491 420.5C470.7 434 450.3 428 429.8 438.5C409.3 449 388.7 476 368.2 498.5C347.7 521 327.3 539 306.8 546.5C286.3 554 265.7 551 245.2 546.5C224.7 542 204.3 536 184 534.5C163.7 533 143.3 536 122.8 515C102.3 494 81.7 449 61.2 440C40.7 431 20.3 458 10.2 471.5L0 485Z" fill="#009f80"></path><path d="M0 901L10.2 901C20.3 901 40.7 901 61.2 901C81.7 901 102.3 901 122.8 901C143.3 901 163.7 901 184 901C204.3 901 224.7 901 245.2 901C265.7 901 286.3 901 306.8 901C327.3 901 347.7 901 368.2 901C388.7 901 409.3 901 429.8 901C450.3 901 470.7 901 491 901C511.3 901 531.7 901 552.2 901C572.7 901 593.3 901 613.8 901C634.3 901 654.7 901 664.8 901L675 901L675 683L664.8 684.5C654.7 686 634.3 689 613.8 683C593.3 677 572.7 662 552.2 671C531.7 680 511.3 713 491 719C470.7 725 450.3 704 429.8 699.5C409.3 695 388.7 707 368.2 717.5C347.7 728 327.3 737 306.8 741.5C286.3 746 265.7 746 245.2 737C224.7 728 204.3 710 184 719C163.7 728 143.3 764 122.8 785C102.3 806 81.7 812 61.2 798.5C40.7 785 20.3 752 10.2 735.5L0 719Z" fill="#00876d"></path></svg>